<svg width="6" height="8" viewBox="0 0 6 8" fill="none" xmlns="http://www.w3.org/2000/svg">
<path d="M1.188 7.78L0.252 7.3L1.188 4.576H0.024L1.968 0.0999994H4.524L3.744 2.212H5.184L1.188 7.78ZM1.428 6.172L3.744 2.956H2.688L3.468 0.832H2.448L1.14 3.844H2.244L1.428 6.172ZM2.052 0.352L0.336 4.276L0.936 3.868L2.292 0.76L2.052 0.352ZM0.54 7L1.116 6.568L1.944 4.156L1.404 4.528L0.54 7ZM2.208 0.267999L2.448 0.664H3.54L4.116 0.267999H2.208ZM3.636 2.392L3.096 2.776H3.864L4.572 2.392H3.636Z" fill="black"/>
</svg>
